<svg width="286" height="286" viewBox="0 0 286 286" fill="none" xmlns="http://www.w3.org/2000/svg">
<rect width="286" height="286" rx="80" fill="black"/>
<path d="M68 164.814V148.867C70.0537 146.295 76.7136 141.151 90.4441 141.151C104.175 141.151 111.715 146.295 113.328 148.867V164.814C112.595 168.415 106.287 175.617 90.4441 175.617C74.6012 175.617 69.1735 168.415 68 164.814Z" fill="#F9C855"/>
<path d="M120.564 131.646V115.699C122.618 113.127 129.278 107.983 143.008 107.983C156.738 107.983 164.279 113.127 165.892 115.699V131.646C165.159 135.247 158.851 142.449 143.008 142.449C127.165 142.449 121.737 135.247 120.564 131.646Z" fill="#F9C855"/>
<path d="M173.395 99.6627V83.7161C175.448 81.1441 182.108 76 195.839 76C209.569 76 217.109 81.1441 218.723 83.7161V99.6627C217.989 103.264 211.682 110.465 195.839 110.465C179.996 110.465 174.568 103.264 173.395 99.6627Z" fill="#F9C855"/>
<path d="M68 198.683V177.592C68 177.592 76.7136 185.309 90.4441 185.309C104.175 185.309 113.328 177.592 113.328 177.592V198.683C112.595 202.284 106.287 209.486 90.4441 209.486C74.6012 209.486 69.1735 202.284 68 198.683Z" fill="#F9C855"/>
<path d="M120.329 199.197V178.107C120.329 178.107 129.043 185.823 142.773 185.823C156.504 185.823 165.657 178.107 165.657 178.107V199.197C164.924 202.798 158.616 210 142.773 210C126.93 210 121.503 202.798 120.329 199.197Z" fill="#F9C855"/>
<path d="M120.697 164.898V143.808C120.697 143.808 129.411 151.524 143.141 151.524C156.872 151.524 166.025 143.808 166.025 143.808V164.898C165.292 168.499 158.984 175.701 143.141 175.701C127.298 175.701 121.871 168.499 120.697 164.898Z" fill="#F9C855"/>
<path d="M173.672 199.197V178.107C173.672 178.107 182.385 185.823 196.116 185.823C209.846 185.823 219 178.107 219 178.107V199.197C218.267 202.798 211.959 210 196.116 210C180.273 210 174.845 202.798 173.672 199.197Z" fill="#F9C855"/>
<path d="M173.395 164.624V143.533C173.395 143.533 182.108 151.249 195.839 151.249C209.569 151.249 218.723 143.533 218.723 143.533V164.624C217.989 168.224 211.682 175.426 195.839 175.426C179.996 175.426 174.568 168.224 173.395 164.624Z" fill="#F9C855"/>
<path d="M173.395 132.263V111.172C173.395 111.172 182.108 118.889 195.839 118.889C209.569 118.889 218.723 111.172 218.723 111.172V132.263C217.989 135.864 211.682 143.066 195.839 143.066C179.996 143.066 174.568 135.864 173.395 132.263Z" fill="#F9C855"/>
</svg>
