<svg width="1045" height="177" viewBox="0 0 1045 177" fill="none" xmlns="http://www.w3.org/2000/svg">
<g clip-path="url(#clip0_28_14)">
<path d="M210.109 144V41.604H261.307C273.391 41.604 282.295 44.784 288.019 51.144C293.743 57.504 296.605 66.037 296.605 76.743C296.605 83.633 294.856 89.675 291.358 94.869C287.86 100.063 283.09 103.932 277.048 106.476C278.532 107.642 279.698 108.967 280.546 110.451C281.5 111.829 282.507 113.79 283.567 116.334L295.651 144H268.939L257.491 117.924C256.537 115.698 255.318 114.108 253.834 113.154C252.35 112.094 250.23 111.564 247.474 111.564H235.708V144H210.109ZM235.708 91.848H254.629C259.611 91.848 263.48 90.629 266.236 88.191C269.098 85.647 270.529 81.831 270.529 76.743C270.529 66.461 265.6 61.32 255.742 61.32H235.708V91.848Z" fill="black"/>
<path d="M347.696 145.59C334.552 145.59 324.005 142.357 316.055 135.891C308.105 129.319 304.13 119.461 304.13 106.317C304.13 94.339 307.416 84.799 313.988 77.697C320.56 70.595 330.418 67.044 343.562 67.044C355.54 67.044 364.815 70.118 371.387 76.266C377.959 82.414 381.245 90.682 381.245 101.07V114.585H327.821C328.987 119.567 331.69 123.065 335.93 125.079C340.276 126.987 346.159 127.941 353.579 127.941C357.713 127.941 361.9 127.57 366.14 126.828C370.486 126.086 374.09 125.132 376.952 123.966V140.661C373.348 142.357 369.055 143.576 364.073 144.318C359.091 145.166 353.632 145.59 347.696 145.59ZM327.821 99.798H358.985V96.459C358.985 92.749 357.872 89.834 355.646 87.714C353.42 85.488 349.657 84.375 344.357 84.375C338.209 84.375 333.916 85.647 331.478 88.191C329.04 90.629 327.821 94.498 327.821 99.798Z" fill="black"/>
<path d="M417.795 145.59C413.025 145.59 408.573 144.742 404.439 143.046C400.411 141.35 397.178 138.753 394.74 135.255C392.302 131.651 391.083 127.199 391.083 121.899C391.083 114.161 393.68 108.119 398.874 103.773C404.174 99.321 412.071 97.095 422.565 97.095H443.553V95.346C443.553 91.53 442.281 88.827 439.737 87.237C437.193 85.541 432.423 84.693 425.427 84.693C416.841 84.693 408.414 86.018 400.146 88.668V72.132C403.856 70.648 408.361 69.429 413.661 68.475C419.067 67.521 424.738 67.044 430.674 67.044C442.334 67.044 451.45 69.429 458.022 74.199C464.7 78.969 468.039 86.548 468.039 96.936V144H445.62L444.348 137.64C441.592 140.184 438.041 142.145 433.695 143.523C429.455 144.901 424.155 145.59 417.795 145.59ZM425.904 129.849C429.932 129.849 433.43 129.16 436.398 127.782C439.366 126.404 441.751 124.655 443.553 122.535V111.882H425.427C417.901 111.882 414.138 114.903 414.138 120.945C414.138 123.701 415.092 125.874 417 127.464C418.908 129.054 421.876 129.849 425.904 129.849Z" fill="black"/>
<path d="M523.14 145.59C509.678 145.59 499.131 142.304 491.499 135.732C483.973 129.16 480.21 119.355 480.21 106.317C480.21 93.067 484.132 83.209 491.976 76.743C499.926 70.277 510.473 67.044 523.617 67.044C529.129 67.044 533.899 67.468 537.927 68.316C542.061 69.058 546.036 70.33 549.852 72.132V90.258C543.916 87.396 536.973 85.965 529.023 85.965C521.603 85.965 515.932 87.449 512.01 90.417C508.194 93.385 506.286 98.685 506.286 106.317C506.286 113.419 508.088 118.613 511.692 121.899C515.296 125.079 521.02 126.669 528.864 126.669C536.602 126.669 543.651 125.079 550.011 121.899V140.82C546.195 142.516 542.061 143.735 537.609 144.477C533.263 145.219 528.44 145.59 523.14 145.59Z" fill="black"/>
<path d="M563.046 144V36.834H588.645V74.199C591.507 72.079 595.058 70.383 599.298 69.111C603.538 67.733 608.096 67.044 612.972 67.044C623.042 67.044 630.409 69.429 635.073 74.199C639.843 78.969 642.228 86.283 642.228 96.141V144H616.629V97.89C616.629 93.544 615.728 90.47 613.926 88.668C612.124 86.866 608.891 85.965 604.227 85.965C601.471 85.965 598.662 86.601 595.8 87.873C592.938 89.145 590.553 90.735 588.645 92.643V144H563.046Z" fill="black"/>
<path d="M654.427 144V132.075C657.289 126.139 660.946 120.839 665.398 116.175C669.956 111.511 674.885 106.794 680.185 102.024C685.061 97.572 688.93 94.021 691.792 91.371C694.654 88.721 696.668 86.177 697.834 83.739C699.106 81.301 699.742 78.386 699.742 74.994C699.742 66.302 694.124 61.956 682.888 61.956C678.542 61.956 674.249 62.486 670.009 63.546C665.769 64.5 661.741 65.719 657.925 67.203V45.102C662.059 43.618 666.882 42.399 672.394 41.445C678.012 40.491 683.577 40.014 689.089 40.014C701.067 40.014 710.183 43.035 716.437 49.077C722.691 55.119 725.818 63.599 725.818 74.517C725.818 80.665 724.387 86.018 721.525 90.576C718.663 95.028 714.37 99.745 708.646 104.727C704.406 108.331 700.59 111.67 697.198 114.744C693.912 117.712 691.103 120.892 688.771 124.284H726.772V144H654.427Z" fill="black"/>
<path d="M739.747 144V41.604H790.945C803.029 41.604 811.933 44.784 817.657 51.144C823.381 57.504 826.243 66.037 826.243 76.743C826.243 83.633 824.494 89.675 820.996 94.869C817.498 100.063 812.728 103.932 806.686 106.476C808.17 107.642 809.336 108.967 810.184 110.451C811.138 111.829 812.145 113.79 813.205 116.334L825.289 144H798.577L787.129 117.924C786.175 115.698 784.956 114.108 783.472 113.154C781.988 112.094 779.868 111.564 777.112 111.564H765.346V144H739.747ZM765.346 91.848H784.267C789.249 91.848 793.118 90.629 795.874 88.191C798.736 85.647 800.167 81.831 800.167 76.743C800.167 66.461 795.238 61.32 785.38 61.32H765.346V91.848Z" fill="black"/>
<path d="M842.036 56.709V37.47H869.861V56.709H842.036ZM844.103 144V87.555H832.973L835.199 68.634H869.702V144H844.103Z" fill="black"/>
<path d="M925.764 145.59C912.302 145.59 901.755 142.304 894.123 135.732C886.597 129.16 882.834 119.355 882.834 106.317C882.834 93.067 886.756 83.209 894.6 76.743C902.55 70.277 913.097 67.044 926.241 67.044C931.753 67.044 936.523 67.468 940.551 68.316C944.685 69.058 948.66 70.33 952.476 72.132V90.258C946.54 87.396 939.597 85.965 931.647 85.965C924.227 85.965 918.556 87.449 914.634 90.417C910.818 93.385 908.91 98.685 908.91 106.317C908.91 113.419 910.712 118.613 914.316 121.899C917.92 125.079 923.644 126.669 931.488 126.669C939.226 126.669 946.275 125.079 952.635 121.899V140.82C948.819 142.516 944.685 143.735 940.233 144.477C935.887 145.219 931.064 145.59 925.764 145.59Z" fill="black"/>
<path d="M965.67 144V36.834H991.269V74.199C994.131 72.079 997.682 70.383 1001.92 69.111C1006.16 67.733 1010.72 67.044 1015.6 67.044C1025.67 67.044 1033.03 69.429 1037.7 74.199C1042.47 78.969 1044.85 86.283 1044.85 96.141V144H1019.25V97.89C1019.25 93.544 1018.35 90.47 1016.55 88.668C1014.75 86.866 1011.51 85.965 1006.85 85.965C1004.09 85.965 1001.29 86.601 998.424 87.873C995.562 89.145 993.177 90.735 991.269 92.643V144H965.67Z" fill="black"/>
<path d="M0.50769 137.064V121.327C2.8767 118.789 10.5591 113.713 26.3976 113.713C42.2361 113.713 50.9338 118.789 52.7952 121.327V137.064C51.9491 140.618 44.6728 147.725 26.3976 147.725C8.12237 147.725 1.86141 140.618 0.50769 137.064Z" fill="#F9C855"/>
<path d="M57.8716 80.208V64.471C60.2406 61.9327 67.923 56.8563 83.7615 56.8563C99.6 56.8563 108.298 61.9327 110.159 64.471V80.208C109.313 83.7615 102.037 90.8685 83.7615 90.8685C65.4863 90.8685 59.2253 83.7615 57.8716 80.208Z" fill="#F9C855"/>
<path d="M113.713 23.3517V7.61468C116.082 5.07645 123.764 0 139.603 0C155.441 0 164.139 5.07645 166 7.61468V23.3517C165.154 26.9052 157.878 34.0122 139.603 34.0122C121.327 34.0122 115.066 26.9052 113.713 23.3517Z" fill="#F9C855"/>
<path d="M0 165.492V144.679C0 144.679 10.0514 152.294 25.8899 152.294C41.7284 152.294 52.2875 144.679 52.2875 144.679V165.492C51.4414 169.046 44.1651 176.153 25.8899 176.153C7.61468 176.153 1.35372 169.046 0 165.492Z" fill="#F9C855"/>
<path d="M56.8563 166V145.187C56.8563 145.187 66.9077 152.801 82.7462 152.801C98.5848 152.801 109.144 145.187 109.144 145.187V166C108.298 169.553 101.021 176.661 82.7462 176.661C64.471 176.661 58.21 169.553 56.8563 166Z" fill="#F9C855"/>
<path d="M56.8563 137.572V116.758C56.8563 116.758 66.9077 124.373 82.7462 124.373C98.5848 124.373 109.144 116.758 109.144 116.758V137.572C108.298 141.125 101.021 148.232 82.7462 148.232C64.471 148.232 58.21 141.125 56.8563 137.572Z" fill="#F9C855"/>
<path d="M56.8563 108.128V87.315C56.8563 87.315 66.9077 94.9297 82.7462 94.9297C98.5848 94.9297 109.144 87.315 109.144 87.315V108.128C108.298 111.682 101.021 118.789 82.7462 118.789C64.471 118.789 58.21 111.682 56.8563 108.128Z" fill="#F9C855"/>
<path d="M113.713 166V145.187C113.713 145.187 123.764 152.801 139.603 152.801C155.441 152.801 166 145.187 166 145.187V166C165.154 169.553 157.878 176.661 139.603 176.661C121.327 176.661 115.066 169.553 113.713 166Z" fill="#F9C855"/>
<path d="M113.713 136.557V115.743C113.713 115.743 123.764 123.358 139.603 123.358C155.441 123.358 166 115.743 166 115.743V136.557C165.154 140.11 157.878 147.217 139.603 147.217C121.327 147.217 115.066 140.11 113.713 136.557Z" fill="#F9C855"/>
<path d="M113.713 108.128V87.315C113.713 87.315 123.764 94.9297 139.603 94.9297C155.441 94.9297 166 87.315 166 87.315V108.128C165.154 111.682 157.878 118.789 139.603 118.789C121.327 118.789 115.066 111.682 113.713 108.128Z" fill="#F9C855"/>
<path d="M113.713 79.7003V58.8868C113.713 58.8868 123.764 66.5015 139.603 66.5015C155.441 66.5015 166 58.8868 166 58.8868V79.7003C165.154 83.2538 157.878 90.3608 139.603 90.3608C121.327 90.3608 115.066 83.2538 113.713 79.7003Z" fill="#F9C855"/>
<path d="M113.713 51.2722V30.4587C113.713 30.4587 123.764 38.0734 139.603 38.0734C155.441 38.0734 166 30.4587 166 30.4587V51.2722C165.154 54.8257 157.878 61.9327 139.603 61.9327C121.327 61.9327 115.066 54.8257 113.713 51.2722Z" fill="#F9C855"/>
</g>
<defs>
<clipPath id="clip0_28_14">
<rect width="1045" height="177" fill="white"/>
</clipPath>
</defs>
</svg>
